<svg width="20" height="30" viewBox="0 0 20 30" fill="none" xmlns="http://www.w3.org/2000/svg">
<path fill-rule="evenodd" clip-rule="evenodd" d="M9.99998 2.96809C8.36075 2.96809 7.03189 1.63923 7.03189 0H4.03189C4.03189 3.29608 6.7039 5.96809 9.99998 5.96809C13.2961 5.96809 15.9681 3.29608 15.9681 0H12.9681C12.9681 1.63923 11.6392 2.96809 9.99998 2.96809ZM17 12.341C17 14.5662 15.9935 18.3637 14.26 21.6386C13.4085 23.2472 12.4723 24.5527 11.5611 25.4149C10.6275 26.2984 9.99483 26.4687 9.68085 26.4687C9.38912 26.4687 8.81046 26.3191 7.95412 25.4672C7.1092 24.6266 6.24776 23.3406 5.46904 21.7337C3.893 18.4816 3 14.6466 3 12.341C3 11.2569 3.20079 10.7936 3.30174 10.627C3.37082 10.513 3.48042 10.3798 3.8537 10.2351C4.2948 10.0641 4.97437 9.93231 6.0266 9.86612C6.96084 9.80736 7.99655 9.80807 9.22482 9.80891L9.68085 9.80912L10.1384 9.8089C11.3722 9.80804 12.4513 9.80729 13.444 9.86668C14.5614 9.93355 15.3534 10.0682 15.9081 10.2651C16.4177 10.446 16.5959 10.6308 16.6859 10.7628C16.7884 10.9131 17 11.3285 17 12.341ZM20 12.341C20 18.0401 15.2037 29.4687 9.68085 29.4687C4.158 29.4687 0 18.0401 0 12.341C0 6.80101 3.92911 6.80435 9.2216 6.80886L9.68085 6.80912L10.1402 6.80886C15.4669 6.80435 20 6.80052 20 12.341Z" fill="#BCA487"/>
</svg>
